<svg width="98" height="17" viewBox="0 0 98 17" fill="none" xmlns="http://www.w3.org/2000/svg">
<g id="Legal Stuff Copy">
<g id="icon/social/facebook_24px">
<path id="icon/social/facebook_24px_2" d="M8.39997 1C8.95226 1 9.39998 1.44772 9.39998 2V3.2C9.39998 3.75228 8.95226 4.2 8.39998 4.2H6.99998C6.44798 4.2 6.19998 4.848 6.19998 5.4V7.4H7.59998C8.15226 7.4 8.59998 7.84772 8.59998 8.4V9.6C8.59998 10.1523 8.15226 10.6 7.59998 10.6H6.19998V16C6.19998 16.5523 5.75226 17 5.19998 17H3.99998C3.44769 17 2.99998 16.5523 2.99998 16V10.6H1.59997C1.04769 10.6 0.599976 10.1523 0.599976 9.6V8.4C0.599976 7.84772 1.04769 7.4 1.59998 7.4H2.99998V4.2C2.99998 2.43269 4.43266 1 6.19998 1H8.39997Z" fill="white"/>
<mask id="mask0_0_42" style="mask-type:luminance" maskUnits="userSpaceOnUse" x="0" y="1" width="10" height="16">
<path id="icon/social/facebook_24px_3" d="M8.39997 1C8.95226 1 9.39998 1.44772 9.39998 2V3.2C9.39998 3.75228 8.95226 4.2 8.39998 4.2H6.99998C6.44798 4.2 6.19998 4.848 6.19998 5.4V7.4H7.59998C8.15226 7.4 8.59998 7.84772 8.59998 8.4V9.6C8.59998 10.1523 8.15226 10.6 7.59998 10.6H6.19998V16C6.19998 16.5523 5.75226 17 5.19998 17H3.99998C3.44769 17 2.99998 16.5523 2.99998 16V10.6H1.59997C1.04769 10.6 0.599976 10.1523 0.599976 9.6V8.4C0.599976 7.84772 1.04769 7.4 1.59998 7.4H2.99998V4.2C2.99998 2.43269 4.43266 1 6.19998 1H8.39997Z" fill="white"/>
</mask>
<g mask="url(#mask0_0_42)">
</g>
</g>
<g id="icon/social/facebook_24px copy">
<path id="icon/social/twitter_24px" fill-rule="evenodd" clip-rule="evenodd" d="M47.211 1.1148C48.5075 0.859886 49.6718 1.04481 50.6524 1.51807C50.7059 1.54387 50.7575 1.56989 50.8074 1.59601L51.7683 1.20715C52.7579 0.806656 53.8038 1.64433 53.6299 2.69698C54.1011 3.21467 54.1759 4.07967 53.539 4.64935L52.5535 5.53091C52.5656 6.61489 52.4169 7.58677 51.9604 8.6701C51.1466 10.6011 49.9797 12.0534 48.552 13.0636C47.5429 13.7776 46.4632 14.2309 45.3751 14.4749C44.6718 14.6326 44.0751 14.6818 43.6361 14.6708C42.296 14.686 41.0616 14.4025 39.9603 13.9204C39.305 13.6336 38.8236 13.3372 38.5343 13.1137C37.4884 12.3058 38.0838 10.6315 39.405 10.6654C39.6586 10.6719 39.8962 10.6682 40.1184 10.6553C39.6977 10.1565 39.4744 9.65494 39.3837 9.24222C39.3522 9.09888 39.3443 8.95683 39.3572 8.81967C39.2699 8.71434 39.1885 8.60505 39.1131 8.49199C38.5785 7.69082 38.4208 6.8672 38.4651 6.16395C38.4683 6.12058 38.4695 6.10431 38.471 6.08806L38.4748 6.05295C38.4988 5.84869 38.5644 5.66432 38.6608 5.50463C38.3777 4.60281 38.442 3.69596 38.7087 2.84216C38.7954 2.56446 38.8867 2.34727 38.9609 2.20151C39.4024 1.33306 40.5848 1.19211 41.2181 1.93243C42.2153 3.09808 43.2003 3.79114 44.1397 4.12697C44.2562 4.16864 44.3682 4.20364 44.4753 4.23265C44.7743 2.34515 46.0168 1.21625 47.211 1.1148ZM45.8098 5.83335C45.8098 5.83335 43.3376 6.40669 40.5788 3.18191C40.5788 3.18191 39.504 5.29592 41.3672 6.58562C41.3672 6.58562 40.7584 6.69314 40.2562 6.33507C40.2562 6.33507 40.0412 8.16219 42.2627 8.87876H41.0803C41.0803 8.87876 41.4031 10.3478 43.481 10.6702C43.481 10.6702 42.6212 11.8167 39.8263 11.745C39.8263 11.745 41.4031 12.9631 43.8038 12.9272C43.8038 12.9272 48.2462 13.1423 50.3602 8.12607C50.88 6.89247 50.826 5.72582 50.7901 5.15227L52.1516 3.9344L50.7901 4.18515C50.7901 4.18515 51.7217 3.5045 51.8295 2.85954L50.3245 3.46858C50.3245 3.46858 49.1959 2.44749 47.2789 2.85954C47.2787 2.85954 45.5234 3.21783 45.8098 5.83335Z" fill="white"/>
<mask id="mask1_0_42" style="mask-type:luminance" maskUnits="userSpaceOnUse" x="38" y="1" width="16" height="14">
<path id="icon/social/twitter_24px_2" fill-rule="evenodd" clip-rule="evenodd" d="M47.211 1.1148C48.5075 0.859886 49.6718 1.04481 50.6524 1.51807C50.7059 1.54387 50.7575 1.56989 50.8074 1.59601L51.7683 1.20715C52.7579 0.806656 53.8038 1.64433 53.6299 2.69698C54.1011 3.21467 54.1759 4.07967 53.539 4.64935L52.5535 5.53091C52.5656 6.61489 52.4169 7.58677 51.9604 8.6701C51.1466 10.6011 49.9797 12.0534 48.552 13.0636C47.5429 13.7776 46.4632 14.2309 45.3751 14.4749C44.6718 14.6326 44.0751 14.6818 43.6361 14.6708C42.296 14.686 41.0616 14.4025 39.9603 13.9204C39.305 13.6336 38.8236 13.3372 38.5343 13.1137C37.4884 12.3058 38.0838 10.6315 39.405 10.6654C39.6586 10.6719 39.8962 10.6682 40.1184 10.6553C39.6977 10.1565 39.4744 9.65494 39.3837 9.24222C39.3522 9.09888 39.3443 8.95683 39.3572 8.81967C39.2699 8.71434 39.1885 8.60505 39.1131 8.49199C38.5785 7.69082 38.4208 6.8672 38.4651 6.16395C38.4683 6.12058 38.4695 6.10431 38.471 6.08806L38.4748 6.05295C38.4988 5.84869 38.5644 5.66432 38.6608 5.50463C38.3777 4.60281 38.442 3.69596 38.7087 2.84216C38.7954 2.56446 38.8867 2.34727 38.9609 2.20151C39.4024 1.33306 40.5848 1.19211 41.2181 1.93243C42.2153 3.09808 43.2003 3.79114 44.1397 4.12697C44.2562 4.16864 44.3682 4.20364 44.4753 4.23265C44.7743 2.34515 46.0168 1.21625 47.211 1.1148ZM45.8098 5.83335C45.8098 5.83335 43.3376 6.40669 40.5788 3.18191C40.5788 3.18191 39.504 5.29592 41.3672 6.58562C41.3672 6.58562 40.7584 6.69314 40.2562 6.33507C40.2562 6.33507 40.0412 8.16219 42.2627 8.87876H41.0803C41.0803 8.87876 41.4031 10.3478 43.481 10.6702C43.481 10.6702 42.6212 11.8167 39.8263 11.745C39.8263 11.745 41.4031 12.9631 43.8038 12.9272C43.8038 12.9272 48.2462 13.1423 50.3602 8.12607C50.88 6.89247 50.826 5.72582 50.7901 5.15227L52.1516 3.9344L50.7901 4.18515C50.7901 4.18515 51.7217 3.5045 51.8295 2.85954L50.3245 3.46858C50.3245 3.46858 49.1959 2.44749 47.2789 2.85954C47.2787 2.85954 45.5234 3.21783 45.8098 5.83335Z" fill="white"/>
</mask>
<g mask="url(#mask1_0_42)">
</g>
</g>
<g id="icon/social/facebook_24px copy 2">
<path id="icon/social/instagram_24px" fill-rule="evenodd" clip-rule="evenodd" d="M96.7097 1.99494C95.871 1.12398 94.6774 0.672363 93.3226 0.672363H86.6774C83.871 0.672363 82 2.54333 82 5.34978V11.9627C82 13.3498 82.4516 14.5433 83.3548 15.4143C84.2258 16.253 85.3871 16.6724 86.7097 16.6724H93.2903C94.6774 16.6724 95.8387 16.2208 96.6774 15.4143C97.5484 14.5756 98 13.382 98 11.9949V5.34978C98 3.99494 97.5484 2.83365 96.7097 1.99494ZM94.2903 5.34978C94.807 5.34978 95.2258 4.93095 95.2258 4.4143C95.2258 3.89765 94.807 3.47881 94.2903 3.47881C93.7737 3.47881 93.3548 3.89765 93.3548 4.4143C93.3548 4.93095 93.7737 5.34978 94.2903 5.34978ZM90 4.51107C87.7419 4.51107 85.871 6.34978 85.871 8.64011C85.871 10.9304 87.7097 12.7691 90 12.7691C92.2903 12.7691 94.129 10.8982 94.129 8.64011C94.129 6.38204 92.2581 4.51107 90 4.51107ZM90 11.2853C88.5484 11.2853 87.3548 10.0917 87.3548 8.64011C87.3548 7.18849 88.5484 5.99494 90 5.99494C91.4516 5.99494 92.6452 7.18849 92.6452 8.64011C92.6452 10.0917 91.4516 11.2853 90 11.2853ZM95.6452 14.3498C96.2258 13.8014 96.5806 12.9949 96.5806 11.9949V5.34978C96.5806 4.4143 96.2581 3.60785 95.7097 3.0272C95.129 2.44656 94.3226 2.15623 93.3548 2.15623H86.7097C85.7419 2.15623 84.9032 2.44656 84.3548 2.99494C83.7742 3.57559 83.4839 4.38204 83.4839 5.34978V11.9627C83.4839 12.9627 83.7742 13.7691 84.3548 14.3498C84.9355 14.8982 85.7419 15.1885 86.7097 15.1885H93.2903C94.2581 15.1885 95.0645 14.8982 95.6452 14.3498Z" fill="white"/>
<mask id="mask2_0_42" style="mask-type:luminance" maskUnits="userSpaceOnUse" x="82" y="0" width="16" height="17">
<path id="icon/social/instagram_24px_2" fill-rule="evenodd" clip-rule="evenodd" d="M96.7097 1.99494C95.871 1.12398 94.6774 0.672363 93.3226 0.672363H86.6774C83.871 0.672363 82 2.54333 82 5.34978V11.9627C82 13.3498 82.4516 14.5433 83.3548 15.4143C84.2258 16.253 85.3871 16.6724 86.7097 16.6724H93.2903C94.6774 16.6724 95.8387 16.2208 96.6774 15.4143C97.5484 14.5756 98 13.382 98 11.9949V5.34978C98 3.99494 97.5484 2.83365 96.7097 1.99494ZM94.2903 5.34978C94.807 5.34978 95.2258 4.93095 95.2258 4.4143C95.2258 3.89765 94.807 3.47881 94.2903 3.47881C93.7737 3.47881 93.3548 3.89765 93.3548 4.4143C93.3548 4.93095 93.7737 5.34978 94.2903 5.34978ZM90 4.51107C87.7419 4.51107 85.871 6.34978 85.871 8.64011C85.871 10.9304 87.7097 12.7691 90 12.7691C92.2903 12.7691 94.129 10.8982 94.129 8.64011C94.129 6.38204 92.2581 4.51107 90 4.51107ZM90 11.2853C88.5484 11.2853 87.3548 10.0917 87.3548 8.64011C87.3548 7.18849 88.5484 5.99494 90 5.99494C91.4516 5.99494 92.6452 7.18849 92.6452 8.64011C92.6452 10.0917 91.4516 11.2853 90 11.2853ZM95.6452 14.3498C96.2258 13.8014 96.5806 12.9949 96.5806 11.9949V5.34978C96.5806 4.4143 96.2581 3.60785 95.7097 3.0272C95.129 2.44656 94.3226 2.15623 93.3548 2.15623H86.7097C85.7419 2.15623 84.9032 2.44656 84.3548 2.99494C83.7742 3.57559 83.4839 4.38204 83.4839 5.34978V11.9627C83.4839 12.9627 83.7742 13.7691 84.3548 14.3498C84.9355 14.8982 85.7419 15.1885 86.7097 15.1885H93.2903C94.2581 15.1885 95.0645 14.8982 95.6452 14.3498Z" fill="white"/>
</mask>
<g mask="url(#mask2_0_42)">
</g>
</g>
</g>
</svg>
